<?xml version="1.0" encoding="utf-8"?>
<!-- Generator: Adobe Illustrator 17.0.0, SVG Export Plug-In . SVG Version: 6.00 Build 0)  -->
<!DOCTYPE svg PUBLIC "-//W3C//DTD SVG 1.1//EN" "http://www.w3.org/Graphics/SVG/1.1/DTD/svg11.dtd">
<svg version="1.1" id="Layer_1" xmlns="http://www.w3.org/2000/svg" xmlns:xlink="http://www.w3.org/1999/xlink" x="0px" y="0px"
	 width="566.93px" height="231.4px" viewBox="0 0 566.93 231.4" enable-background="new 0 0 566.93 231.4" xml:space="preserve">
<g>
	<path fill="#009E58" d="M359.414,131.473h-6.137c-2.274-2.411-6.379-6.562-10.724-10.538l-88.797-82.6h-2.048v93.138
		c-2.048-0.179-3.918-0.53-5.756-0.53c-2.064,0-3.894,0.351-5.748,0.53V13.295h8.007l97.636,88.979h2.064V13.295
		c1.869,0.179,3.731,0.53,5.795,0.53c1.799,0,3.669-0.351,5.709-0.53v118.178H359.414z"/>
	<path fill="#009E58" d="M389.509,131.473c-3.31-0.179-6.168-0.53-9.05-0.53c-3.077,0-6.176,0.351-9.035,0.53V13.295h36.793
		c39.884,0,53.023,7.442,53.023,28.331c0,20.92-14.961,30.422-43.981,35.258c-9.26,1.566-22.625,0.351-27.75,0.351L389.509,131.473
		L389.509,131.473z M389.509,70.494c5.125,0.51,13.389,0.51,20.344,0c20.569-1.717,32.486-12.633,32.486-27.972
		c0-11.733-6.994-21.107-23.241-22.287c-8.832-0.697-23.436-0.53-29.589-0.206V70.494z"/>
	<path fill="#009E58" d="M560.956,131.473c-3.918-0.179-7.212-0.53-10.686-0.53c-3.902,0-7.376,0.351-10.904,0.53
		c-5.95-14.343-13.334-30.913-21.597-46.645h-52.19c-7.189,15.223-14.588,30.41-20.367,46.645c-2.866-0.179-5.148-0.53-7.617-0.53
		c-2.663,0-4.93,0.351-7.173,0.53l64.122-120.772h4.743L560.956,131.473z M491.849,33.35l-22.376,44.204h45.235L491.849,33.35z"/>
	<path fill="#0190CB" d="M120.807,231.399H46.264C20.71,231.399,0,208.937,0,181.226s20.71-50.162,46.264-50.162h74.543
		C120.807,131.064,120.807,231.399,120.807,231.399z"/>
	<path fill="#009E58" d="M120.807,131.064V50.177C120.807,22.45,143.565,0,171.596,0c28.015,0,50.757,22.45,50.757,50.177v80.887
		L120.807,131.064L120.807,131.064z"/>
	<g>
		<path fill="#585857" d="M174.376,180.026h-1.526c-0.569-0.666-1.612-1.877-2.679-3.014l-22.267-23.65h-0.498v26.664
			c-0.53-0.047-0.981-0.152-1.457-0.152c-0.498,0-0.981,0.105-1.402,0.152v-33.817h1.97l24.464,25.468h0.506v-25.468
			c0.483,0.027,0.911,0.152,1.457,0.152c0.459,0,0.911-0.125,1.433-0.152v33.817H174.376z"/>
		<path fill="#585857" d="M200.686,175.875c0,1.939-0.148,2.94,2.913,2.274v1.087c-0.374,0.187-0.997,0.413-1.574,0.502
			c-2.656,0.455-4.899,0.043-5.304-2.878l-0.444,0.467c-2.181,2.095-4.556,3.076-7.64,3.076c-3.653,0-6.854-2.348-6.854-6.013
			c0-5.615,4.688-6.355,9.541-7.114c4.058-0.639,5.452-0.95,5.452-3.33c0-3.641-2.149-5.767-6.028-5.767
			c-3.73,0-5.763,2.321-6.114,3.4h-0.553v-2.746c2.469-1.64,5.242-2.714,8.279-2.714c5.39,0,8.326,2.714,8.326,8.306V175.875z
			 M196.565,167.732l-1.799,0.351c-3.474,0.623-8.762,1.133-8.762,5.608c0,3.139,1.924,4.642,5.039,4.642
			c1.41,0,3.139-0.927,4.128-1.853c0.397-0.347,1.394-1.196,1.394-1.53L196.565,167.732L196.565,167.732z"/>
		<path fill="#585857" d="M212.984,149.978v6.418h5.452c-0.132,0.693-0.132,1.379,0,1.877h-5.452v12.414
			c0,3.003-0.46,8.006,3.84,8.006c0.771,0,1.526-0.183,2.297-0.362v1.227c-1.386,0.467-2.85,0.845-4.338,0.845
			c-3.894,0-6.153-1.71-5.903-7.73v-14.401h-3.186c0.148-0.65,0.148-1.243,0-1.877h3.186V151.5L212.984,149.978z"/>
		<path fill="#585857" d="M226.629,150.481c-1.417,0-2.593-1.164-2.593-2.535c0-1.386,1.176-2.523,2.593-2.523
			c1.394,0,2.633,1.137,2.633,2.523C229.261,149.317,228.023,150.481,226.629,150.481 M228.716,180.026
			c-0.756-0.047-1.394-0.152-2.088-0.152c-0.716,0-1.386,0.105-2.064,0.152v-23.63c0.678,0.047,1.347,0.136,2.064,0.136
			c0.693,0,1.332-0.089,2.088-0.136V180.026z"/>
		<path fill="#585857" d="M248.701,156.12c7.033,0,11.924,4.685,11.924,12.053c0,6.277-4.361,12.232-12.897,12.232
			c-6.924,0-12.586-4.864-12.119-12.368C235.609,160.898,241.271,156.12,248.701,156.12 M240.134,168.776
			c0,4.872,2.134,10.114,8.045,10.114c6.021,0,7.929-7.123,7.929-10.943c0-4.486-1.768-10.323-7.469-10.323
			C242.089,157.623,240.134,163.519,240.134,168.776"/>
		<path fill="#585857" d="M266.42,156.396c0.654,0.047,1.316,0.136,2.04,0.136c0.67,0,1.262-0.089,2.064-0.136v4.502
			c1.807-3.003,4.626-4.778,8.279-4.778c5.99,0,8.279,3.108,8.279,9.599l0.047,14.307c-0.779-0.047-1.433-0.152-2.064-0.152
			c-0.748,0-1.41,0.105-2.072,0.152v-13.155c0-4.611-0.872-8.217-5.724-8.217c-5.413,0-6.745,3.832-6.745,9.926v11.445
			c-0.802-0.047-1.394-0.152-2.064-0.152c-0.725,0-1.387,0.105-2.04,0.152V156.396z"/>
		<path fill="#585857" d="M312.325,175.875c0,1.939-0.14,2.94,2.889,2.274v1.087c-0.366,0.187-0.981,0.413-1.55,0.502
			c-2.664,0.455-4.891,0.043-5.304-2.878l-0.444,0.467c-2.157,2.095-4.525,3.076-7.633,3.076c-3.653,0-6.854-2.348-6.854-6.013
			c0-5.615,4.689-6.355,9.51-7.114c4.057-0.639,5.483-0.95,5.483-3.33c0-3.641-2.165-5.767-6.029-5.767
			c-3.777,0-5.763,2.321-6.145,3.4h-0.568v-2.746c2.492-1.64,5.265-2.714,8.318-2.714c5.39,0,8.326,2.714,8.326,8.306
			L312.325,175.875L312.325,175.875z M308.213,167.732l-1.822,0.351c-3.466,0.623-8.762,1.133-8.762,5.608
			c0,3.139,1.947,4.642,5.078,4.642c1.394,0,3.092-0.927,4.097-1.853c0.382-0.347,1.41-1.196,1.41-1.53v-7.218H308.213z"/>
		<path fill="#585857" d="M321.897,142.887c0.654,0.047,1.339,0.167,2.048,0.167c0.686,0,1.316-0.12,2.08-0.167v37.139
			c-0.763-0.047-1.394-0.152-2.08-0.152c-0.709,0-1.394,0.105-2.048,0.152V142.887z"/>
		<path fill="#585857" d="M174.415,229.261c-0.935-0.058-1.799-0.163-2.664-0.163c-0.973,0-1.861,0.105-2.742,0.163
			c-1.472-4.089-3.341-8.867-5.413-13.369h-13.053c-1.799,4.369-3.669,8.731-5.125,13.369c-0.678-0.058-1.269-0.163-1.924-0.163
			c-0.631,0-1.184,0.105-1.76,0.163l16.06-34.561h1.176L174.415,229.261z M157.117,201.156l-5.592,12.676h11.317L157.117,201.156z"
			/>
		<path fill="#585857" d="M178.878,224.475c1.254,1.92,3.544,3.665,5.974,3.665c2.484,0,5.016-1.905,5.016-4.529
			c0-6.671-12.173-2.317-12.173-10.978c0-4.743,3.785-7.302,8.411-7.302c2.672,0,4.93,0.74,5.826,1.27
			c-0.53,1.137-0.896,2.317-1.246,3.516h-0.436c-0.701-1.639-2.477-3.271-4.416-3.271c-2.562,0-4.665,1.437-4.665,4.12
			c0,6.32,12.119,2.971,12.119,10.873c0,5.3-4.93,7.815-9.455,7.815c-2.095,0-4.642-0.557-6.41-1.577
			c0.382-1.18,0.865-2.391,1.059-3.602H178.878z"/>
		<path fill="#585857" d="M198.948,224.475c1.231,1.92,3.482,3.665,5.88,3.665c2.562,0,5.063-1.905,5.063-4.529
			c0-6.671-12.142-2.317-12.142-10.978c0-4.743,3.746-7.302,8.388-7.302c2.679,0,4.906,0.74,5.818,1.27
			c-0.538,1.137-0.912,2.317-1.231,3.516h-0.491c-0.646-1.639-2.43-3.271-4.361-3.271c-2.57,0-4.689,1.437-4.689,4.12
			c0,6.32,12.189,2.971,12.189,10.873c0,5.3-4.969,7.815-9.517,7.815c-2.087,0-4.634-0.557-6.425-1.577
			c0.413-1.18,0.865-2.391,1.075-3.602H198.948z"/>
		<path fill="#585857" d="M230.172,205.331c7.08,0,11.987,4.681,11.987,12.049c0,6.289-4.408,12.275-12.898,12.275
			c-6.97,0-12.617-4.895-12.142-12.411C217.119,210.117,222.758,205.331,230.172,205.331 M221.652,217.972
			c0,4.926,2.126,10.168,8.022,10.168c6.028,0,7.913-7.154,7.913-10.99c0-4.443-1.729-10.304-7.438-10.304
			C223.576,206.846,221.652,212.742,221.652,217.972"/>
		<path fill="#585857" d="M266.342,210.584h-0.405c-0.405-0.53-0.841-1.149-1.402-1.62c-1.184-1.274-3.364-1.986-5.117-1.986
			c-5.958,0-8.824,4.977-8.824,10.172c0,6.32,3.731,10.822,9.338,10.822c2.96,0,4.961-1.363,7.142-3.213l0.265,0.167l-0.218,2.243
			c-2.344,1.651-5.047,2.484-7.874,2.484c-8.629,0-13.201-5.347-13.201-12.275c0-7.64,5.662-12.049,13.373-12.049
			c2.913,0,5.545,0.546,8.1,2.013L266.342,210.584z"/>
		<path fill="#585857" d="M276.833,199.688c-1.425,0-2.64-1.137-2.64-2.531c0-1.382,1.215-2.515,2.64-2.515s2.625,1.133,2.625,2.515
			C279.458,198.551,278.258,199.688,276.833,199.688 M278.905,229.261c-0.771-0.058-1.394-0.163-2.072-0.163
			c-0.725,0-1.41,0.105-2.048,0.163v-23.646c0.639,0.043,1.324,0.156,2.048,0.156c0.678,0,1.301-0.113,2.072-0.156V229.261z"/>
		<path fill="#585857" d="M305.253,225.079c0,1.955-0.148,2.956,2.89,2.305v1.079c-0.374,0.163-0.989,0.425-1.55,0.514
			c-2.671,0.44-4.883,0.043-5.296-2.913l-0.467,0.471c-2.165,2.091-4.533,3.119-7.609,3.119c-3.669,0-6.854-2.36-6.854-6.044
			c0-5.639,4.712-6.367,9.525-7.111c4.089-0.65,5.452-0.938,5.452-3.306c0-3.657-2.165-5.806-5.997-5.806
			c-3.777,0-5.795,2.352-6.145,3.415h-0.577v-2.746c2.454-1.635,5.242-2.726,8.31-2.726c5.397,0,8.318,2.726,8.318,8.306
			L305.253,225.079L305.253,225.079z M301.133,216.94l-1.776,0.347c-3.512,0.638-8.77,1.141-8.77,5.627
			c0,3.119,1.916,4.665,5.055,4.665c1.386,0,3.131-0.969,4.112-1.893c0.382-0.351,1.379-1.195,1.379-1.53V216.94z"/>
		<path fill="#585857" d="M317.582,199.19v6.425h5.452c-0.156,0.685-0.156,1.363,0,1.865h-5.452v12.43
			c0,3.002-0.49,8.018,3.786,8.018c0.786,0,1.55-0.214,2.336-0.351v1.18c-1.394,0.502-2.85,0.896-4.346,0.896
			c-3.894,0-6.161-1.725-5.919-7.773v-14.401h-3.178c0.163-0.635,0.163-1.231,0-1.865h3.178v-4.899L317.582,199.19z"/>
		<path fill="#585857" d="M331.197,199.688c-1.449,0-2.617-1.137-2.617-2.531c0-1.382,1.168-2.515,2.617-2.515
			c1.394,0,2.64,1.133,2.64,2.515C333.837,198.551,332.591,199.688,331.197,199.688 M333.284,229.261
			c-0.802-0.058-1.394-0.163-2.087-0.163c-0.732,0-1.387,0.105-2.064,0.163v-23.646c0.678,0.043,1.332,0.156,2.064,0.156
			c0.693,0,1.285-0.113,2.087-0.156V229.261z"/>
		<path fill="#585857" d="M353.254,205.331c7.041,0,11.94,4.681,11.94,12.049c0,6.289-4.377,12.275-12.874,12.275
			c-6.971,0-12.625-4.895-12.158-12.411C340.161,210.117,345.823,205.331,353.254,205.331 M344.702,217.972
			c0,4.926,2.119,10.168,8.03,10.168c6.021,0,7.936-7.154,7.936-10.99c0-4.443-1.752-10.304-7.469-10.304
			C346.664,206.846,344.702,212.742,344.702,217.972"/>
		<path fill="#585857" d="M370.941,205.615c0.685,0.043,1.379,0.156,2.072,0.156c0.685,0,1.293-0.113,2.064-0.156v4.502
			c1.807-3.029,4.65-4.786,8.302-4.786c5.943,0,8.279,3.088,8.279,9.65v14.28c-0.771-0.058-1.386-0.163-2.056-0.163
			c-0.732,0-1.41,0.105-2.064,0.163v-13.17c0-4.611-0.88-8.201-5.717-8.201c-5.413,0-6.745,3.832-6.745,9.884v11.488
			c-0.771-0.058-1.379-0.163-2.064-0.163c-0.693,0-1.386,0.105-2.072,0.163v-23.647H370.941z"/>
		<path fill="#585857" d="M174.376,180.026h-1.526c-0.569-0.666-1.612-1.877-2.679-3.014l-22.267-23.65h-0.498v26.664
			c-0.53-0.047-0.981-0.152-1.457-0.152c-0.498,0-0.981,0.105-1.402,0.152v-33.817h1.97l24.464,25.468h0.506v-25.468
			c0.483,0.027,0.911,0.152,1.457,0.152c0.459,0,0.911-0.125,1.433-0.152v33.817H174.376z"/>
		<path fill="#585857" d="M200.686,175.875c0,1.939-0.148,2.94,2.913,2.274v1.087c-0.374,0.187-0.997,0.413-1.574,0.502
			c-2.656,0.455-4.899,0.043-5.304-2.878l-0.444,0.467c-2.181,2.095-4.556,3.076-7.64,3.076c-3.653,0-6.854-2.348-6.854-6.013
			c0-5.615,4.688-6.355,9.541-7.114c4.058-0.639,5.452-0.95,5.452-3.33c0-3.641-2.149-5.767-6.028-5.767
			c-3.73,0-5.763,2.321-6.114,3.4h-0.553v-2.746c2.469-1.64,5.242-2.714,8.279-2.714c5.39,0,8.326,2.714,8.326,8.306V175.875z
			 M196.565,167.732l-1.799,0.351c-3.474,0.623-8.762,1.133-8.762,5.608c0,3.139,1.924,4.642,5.039,4.642
			c1.41,0,3.139-0.927,4.128-1.853c0.397-0.347,1.394-1.196,1.394-1.53L196.565,167.732L196.565,167.732z"/>
		<path fill="#585857" d="M212.984,149.978v6.418h5.452c-0.132,0.693-0.132,1.379,0,1.877h-5.452v12.414
			c0,3.003-0.46,8.006,3.84,8.006c0.771,0,1.526-0.183,2.297-0.362v1.227c-1.386,0.467-2.85,0.845-4.338,0.845
			c-3.894,0-6.153-1.71-5.903-7.73v-14.401h-3.186c0.148-0.65,0.148-1.243,0-1.877h3.186V151.5L212.984,149.978z"/>
		<path fill="#585857" d="M226.629,150.481c-1.417,0-2.593-1.164-2.593-2.535c0-1.386,1.176-2.523,2.593-2.523
			c1.394,0,2.633,1.137,2.633,2.523C229.261,149.317,228.023,150.481,226.629,150.481 M228.716,180.026
			c-0.756-0.047-1.394-0.152-2.088-0.152c-0.716,0-1.386,0.105-2.064,0.152v-23.63c0.678,0.047,1.347,0.136,2.064,0.136
			c0.693,0,1.332-0.089,2.088-0.136V180.026z"/>
		<path fill="#585857" d="M248.701,156.12c7.033,0,11.924,4.685,11.924,12.053c0,6.277-4.361,12.232-12.897,12.232
			c-6.924,0-12.586-4.864-12.119-12.368C235.609,160.898,241.271,156.12,248.701,156.12 M240.134,168.776
			c0,4.872,2.134,10.114,8.045,10.114c6.021,0,7.929-7.123,7.929-10.943c0-4.486-1.768-10.323-7.469-10.323
			C242.089,157.623,240.134,163.519,240.134,168.776"/>
		<path fill="#585857" d="M266.42,156.396c0.654,0.047,1.316,0.136,2.04,0.136c0.67,0,1.262-0.089,2.064-0.136v4.502
			c1.807-3.003,4.626-4.778,8.279-4.778c5.99,0,8.279,3.108,8.279,9.599l0.047,14.307c-0.779-0.047-1.433-0.152-2.064-0.152
			c-0.748,0-1.41,0.105-2.072,0.152v-13.155c0-4.611-0.872-8.217-5.724-8.217c-5.413,0-6.745,3.832-6.745,9.926v11.445
			c-0.802-0.047-1.394-0.152-2.064-0.152c-0.725,0-1.387,0.105-2.04,0.152V156.396z"/>
		<path fill="#585857" d="M312.325,175.875c0,1.939-0.14,2.94,2.889,2.274v1.087c-0.366,0.187-0.981,0.413-1.55,0.502
			c-2.664,0.455-4.891,0.043-5.304-2.878l-0.444,0.467c-2.157,2.095-4.525,3.076-7.633,3.076c-3.653,0-6.854-2.348-6.854-6.013
			c0-5.615,4.689-6.355,9.51-7.114c4.057-0.639,5.483-0.95,5.483-3.33c0-3.641-2.165-5.767-6.029-5.767
			c-3.777,0-5.763,2.321-6.145,3.4h-0.568v-2.746c2.492-1.64,5.265-2.714,8.318-2.714c5.39,0,8.326,2.714,8.326,8.306
			L312.325,175.875L312.325,175.875z M308.213,167.732l-1.822,0.351c-3.466,0.623-8.762,1.133-8.762,5.608
			c0,3.139,1.947,4.642,5.078,4.642c1.394,0,3.092-0.927,4.097-1.853c0.382-0.347,1.41-1.196,1.41-1.53v-7.218H308.213z"/>
		<path fill="#585857" d="M321.897,142.887c0.654,0.047,1.339,0.167,2.048,0.167c0.686,0,1.316-0.12,2.08-0.167v37.139
			c-0.763-0.047-1.394-0.152-2.08-0.152c-0.709,0-1.394,0.105-2.048,0.152V142.887z"/>
		<path fill="#585857" d="M174.415,229.261c-0.935-0.058-1.799-0.163-2.664-0.163c-0.973,0-1.861,0.105-2.742,0.163
			c-1.472-4.089-3.341-8.867-5.413-13.369h-13.053c-1.799,4.369-3.669,8.731-5.125,13.369c-0.678-0.058-1.269-0.163-1.924-0.163
			c-0.631,0-1.184,0.105-1.76,0.163l16.06-34.561h1.176L174.415,229.261z M157.117,201.156l-5.592,12.676h11.317L157.117,201.156z"
			/>
		<path fill="#585857" d="M178.878,224.475c1.254,1.92,3.544,3.665,5.974,3.665c2.484,0,5.016-1.905,5.016-4.529
			c0-6.671-12.173-2.317-12.173-10.978c0-4.743,3.785-7.302,8.411-7.302c2.672,0,4.93,0.74,5.826,1.27
			c-0.53,1.137-0.896,2.317-1.246,3.516h-0.436c-0.701-1.639-2.477-3.271-4.416-3.271c-2.562,0-4.665,1.437-4.665,4.12
			c0,6.32,12.119,2.971,12.119,10.873c0,5.3-4.93,7.815-9.455,7.815c-2.095,0-4.642-0.557-6.41-1.577
			c0.382-1.18,0.865-2.391,1.059-3.602H178.878z"/>
		<path fill="#585857" d="M198.948,224.475c1.231,1.92,3.482,3.665,5.88,3.665c2.562,0,5.063-1.905,5.063-4.529
			c0-6.671-12.142-2.317-12.142-10.978c0-4.743,3.746-7.302,8.388-7.302c2.679,0,4.906,0.74,5.818,1.27
			c-0.538,1.137-0.912,2.317-1.231,3.516h-0.491c-0.646-1.639-2.43-3.271-4.361-3.271c-2.57,0-4.689,1.437-4.689,4.12
			c0,6.32,12.189,2.971,12.189,10.873c0,5.3-4.969,7.815-9.517,7.815c-2.087,0-4.634-0.557-6.425-1.577
			c0.413-1.18,0.865-2.391,1.075-3.602H198.948z"/>
		<path fill="#585857" d="M230.172,205.331c7.08,0,11.987,4.681,11.987,12.049c0,6.289-4.408,12.275-12.898,12.275
			c-6.97,0-12.617-4.895-12.142-12.411C217.119,210.117,222.758,205.331,230.172,205.331 M221.652,217.972
			c0,4.926,2.126,10.168,8.022,10.168c6.028,0,7.913-7.154,7.913-10.99c0-4.443-1.729-10.304-7.438-10.304
			C223.576,206.846,221.652,212.742,221.652,217.972"/>
		<path fill="#585857" d="M266.342,210.584h-0.405c-0.405-0.53-0.841-1.149-1.402-1.62c-1.184-1.274-3.364-1.986-5.117-1.986
			c-5.958,0-8.824,4.977-8.824,10.172c0,6.32,3.731,10.822,9.338,10.822c2.96,0,4.961-1.363,7.142-3.213l0.265,0.167l-0.218,2.243
			c-2.344,1.651-5.047,2.484-7.874,2.484c-8.629,0-13.201-5.347-13.201-12.275c0-7.64,5.662-12.049,13.373-12.049
			c2.913,0,5.545,0.546,8.1,2.013L266.342,210.584z"/>
		<path fill="#585857" d="M276.833,199.688c-1.425,0-2.64-1.137-2.64-2.531c0-1.382,1.215-2.515,2.64-2.515s2.625,1.133,2.625,2.515
			C279.458,198.551,278.258,199.688,276.833,199.688 M278.905,229.261c-0.771-0.058-1.394-0.163-2.072-0.163
			c-0.725,0-1.41,0.105-2.048,0.163v-23.646c0.639,0.043,1.324,0.156,2.048,0.156c0.678,0,1.301-0.113,2.072-0.156V229.261z"/>
		<path fill="#585857" d="M305.253,225.079c0,1.955-0.148,2.956,2.89,2.305v1.079c-0.374,0.163-0.989,0.425-1.55,0.514
			c-2.671,0.44-4.883,0.043-5.296-2.913l-0.467,0.471c-2.165,2.091-4.533,3.119-7.609,3.119c-3.669,0-6.854-2.36-6.854-6.044
			c0-5.639,4.712-6.367,9.525-7.111c4.089-0.65,5.452-0.938,5.452-3.306c0-3.657-2.165-5.806-5.997-5.806
			c-3.777,0-5.795,2.352-6.145,3.415h-0.577v-2.746c2.454-1.635,5.242-2.726,8.31-2.726c5.397,0,8.318,2.726,8.318,8.306
			L305.253,225.079L305.253,225.079z M301.133,216.94l-1.776,0.347c-3.512,0.638-8.77,1.141-8.77,5.627
			c0,3.119,1.916,4.665,5.055,4.665c1.386,0,3.131-0.969,4.112-1.893c0.382-0.351,1.379-1.195,1.379-1.53V216.94z"/>
		<path fill="#585857" d="M317.582,199.19v6.425h5.452c-0.156,0.685-0.156,1.363,0,1.865h-5.452v12.43
			c0,3.002-0.49,8.018,3.786,8.018c0.786,0,1.55-0.214,2.336-0.351v1.18c-1.394,0.502-2.85,0.896-4.346,0.896
			c-3.894,0-6.161-1.725-5.919-7.773v-14.401h-3.178c0.163-0.635,0.163-1.231,0-1.865h3.178v-4.899L317.582,199.19z"/>
		<path fill="#585857" d="M331.197,199.688c-1.449,0-2.617-1.137-2.617-2.531c0-1.382,1.168-2.515,2.617-2.515
			c1.394,0,2.64,1.133,2.64,2.515C333.837,198.551,332.591,199.688,331.197,199.688 M333.284,229.261
			c-0.802-0.058-1.394-0.163-2.087-0.163c-0.732,0-1.387,0.105-2.064,0.163v-23.646c0.678,0.043,1.332,0.156,2.064,0.156
			c0.693,0,1.285-0.113,2.087-0.156V229.261z"/>
		<path fill="#585857" d="M353.254,205.331c7.041,0,11.94,4.681,11.94,12.049c0,6.289-4.377,12.275-12.874,12.275
			c-6.971,0-12.625-4.895-12.158-12.411C340.161,210.117,345.823,205.331,353.254,205.331 M344.702,217.972
			c0,4.926,2.119,10.168,8.03,10.168c6.021,0,7.936-7.154,7.936-10.99c0-4.443-1.752-10.304-7.469-10.304
			C346.664,206.846,344.702,212.742,344.702,217.972"/>
		<path fill="#585857" d="M370.941,205.615c0.685,0.043,1.379,0.156,2.072,0.156c0.685,0,1.293-0.113,2.064-0.156v4.502
			c1.807-3.029,4.65-4.786,8.302-4.786c5.943,0,8.279,3.088,8.279,9.65v14.28c-0.771-0.058-1.386-0.163-2.056-0.163
			c-0.732,0-1.41,0.105-2.064,0.163v-13.17c0-4.611-0.88-8.201-5.717-8.201c-5.413,0-6.745,3.832-6.745,9.884v11.488
			c-0.771-0.058-1.379-0.163-2.064-0.163c-0.693,0-1.386,0.105-2.072,0.163v-23.647H370.941z"/>
		<path fill="#585857" d="M355.279,180.147c-1.293-0.121-2.609-0.273-3.886-0.273c-1.285,0-2.57,0.152-3.863,0.273v-36.516h12.695
			c7.197,0,11.044,2.956,11.044,8.972c0,9.506-6.714,11.523-15.989,11.523v16.021H355.279z M355.279,161.186
			c1.121-0.047,2.336-0.093,3.396-0.351c3.334-0.973,4.595-3.999,4.595-7.247c0-4.272-2.103-7.107-4.806-7.107h-3.185V161.186z"/>
		<path fill="#585857" d="M382.476,157.985c1.791-2.076,4.86-4.14,7.656-4.14c2.383,0,4.323,0.748,6.044,2.446
			c1.901,1.935,2.173,4.151,2.173,6.76v17.096c-1.199-0.121-2.383-0.273-3.559-0.273c-1.223,0-2.375,0.152-3.567,0.273v-13.275
			c0-4.899-0.638-8.552-4.268-8.552c-4.735,0-4.478,6.184-4.478,9.58v12.247c-1.2-0.121-2.368-0.273-3.536-0.273
			c-1.215,0-2.407,0.152-3.583,0.273v-40.473c1.176,0.109,2.368,0.261,3.583,0.261c1.168,0,2.336-0.152,3.536-0.261v18.311H382.476z
			"/>
		<path fill="#585857" d="M423.599,175.478c0,1.974,0.561,2.594,2.601,2.519v1.192c-1.223,0.58-3.209,1.429-4.642,1.429
			c-2.415,0-4.26-1.53-5.094-3.879c-1.355,2.45-3.925,3.879-6.643,3.879c-4.213,0-7.353-2.375-7.353-7.006
			c0-5.074,2.991-6.577,9.455-8.186c1.262-0.3,2.609-0.604,3.746-1.375c0.662-0.565,0.794-1.246,0.794-2.064
			c0-2.547-2.539-4.689-4.914-4.689c-3.31,0-5.997,2.356-6.316,3.306h-0.342l-0.678-3.212c2.438-2.348,6.278-3.548,9.549-3.548
			c4.354,0,9.837,1.807,9.837,7.142V175.478z M416.464,166.202c-1.301,0.577-3.614,1.048-5.109,2.29
			c-1.355,1.121-1.667,2.714-1.667,4.424c0,1.959,0.623,4.264,2.85,4.264c3.131,0,3.793-3.139,3.925-5.822v-5.156H416.464z"/>
		<path fill="#585857" d="M430.515,154.32c1.168,0.117,2.36,0.273,3.559,0.273c1.176,0,2.344-0.156,3.544-0.273v6.605
			c1.083-3.894,3.357-7.08,8.388-7.08c-0.234,2.504-0.397,4.926-0.234,7.247l-0.459,0.424c-0.693-0.471-1.784-0.681-2.648-0.681
			c-2.227,0-4.136,1.211-4.727,3.486c-0.483,1.546-0.319,4.474-0.319,6.168v9.658c-1.2-0.121-2.368-0.273-3.544-0.273
			c-1.199,0-2.391,0.152-3.559,0.273L430.515,154.32L430.515,154.32z"/>
		<path fill="#585857" d="M449.854,154.32c1.184,0.117,2.383,0.273,3.567,0.273c1.176,0,2.367-0.156,3.559-0.273v4
			c1.48-2.574,4.595-4.475,7.625-4.475c3.224,0,5.748,1.624,6.838,4.837c1.799-2.819,4.439-4.837,7.835-4.837
			c6.036,0,8.069,3.641,8.069,9.327v16.975c-1.184-0.121-2.383-0.273-3.575-0.273c-1.184,0-2.367,0.152-3.567,0.273v-14.428
			c0-3.567-0.296-7.399-3.731-7.399c-3.684,0-4.338,2.395-4.338,5.686v16.141c-1.153-0.121-2.344-0.273-3.544-0.273
			c-1.168,0-2.375,0.152-3.559,0.273v-14.428c0-3.567-0.319-7.399-3.746-7.399c-3.59,0-4.307,3.364-4.307,6.277v15.55
			c-1.192-0.121-2.383-0.273-3.559-0.273c-1.184,0-2.383,0.152-3.567,0.273V154.32z"/>
		<path fill="#585857" d="M512.465,175.478c0,1.974,0.6,2.594,2.664,2.519v1.192c-1.223,0.58-3.209,1.429-4.634,1.429
			c-2.43,0-4.299-1.53-5.141-3.879c-1.347,2.45-3.91,3.879-6.597,3.879c-4.253,0-7.399-2.375-7.399-7.006
			c0-5.074,3.014-6.577,9.463-8.186c1.277-0.3,2.64-0.604,3.77-1.375c0.623-0.565,0.763-1.246,0.763-2.064
			c0-2.547-2.508-4.689-4.93-4.689c-3.256,0-5.942,2.356-6.262,3.306h-0.358l-0.662-3.212c2.423-2.348,6.285-3.548,9.541-3.548
			c4.338,0,9.782,1.807,9.782,7.142L512.465,175.478L512.465,175.478z M505.354,166.202c-1.277,0.577-3.591,1.048-5.109,2.29
			c-1.324,1.121-1.651,2.714-1.651,4.424c0,1.959,0.6,4.264,2.851,4.264c3.146,0,3.816-3.139,3.91-5.822v-5.156H505.354z"/>
		<path fill="#585857" d="M538.759,161.778h-1.239c-0.358-2.929-2.22-5.534-5.257-5.534c-4.829,0-6.34,6.515-6.34,10.444
			c0,6.394,2.228,10.491,7.827,10.491c1.932,0,4.12-0.989,5.39-2.52l0.888,0.76l-1.269,3.181c-1.449,1.324-5.109,2.017-6.955,2.017
			c-8.038,0-13.521-4.549-13.521-12.933c0-8.458,5.46-13.84,13.583-13.84c2.928,0,6.441,0.748,8.894,2.399L538.759,161.778z"/>
		<path fill="#585857" d="M553.175,179.925l-10.437-25.605c1.301,0.117,2.648,0.273,3.933,0.273c1.293,0,2.64-0.156,3.918-0.273
			c1.908,5.588,4.034,11.107,6.2,16.562l1.97-5.456c1.332-3.649,2.734-7.302,3.894-11.107c0.748,0.117,1.433,0.16,2.165,0.16
			c0.685,0,1.379-0.043,2.111-0.16l-5.257,12.212c-3.793,8.945-7.407,17.878-10.725,27.139c-0.709-0.078-1.449-0.152-2.149-0.152
			c-0.74,0-1.441,0.074-2.212,0.152L553.175,179.925z"/>
	</g>
	
		<linearGradient id="SVGID_1_" gradientUnits="userSpaceOnUse" x1="534.427" y1="-165.5015" x2="703.943" y2="-165.5015" gradientTransform="matrix(1 0 0 -1 -137.535 50.8)">
		<stop  offset="0" style="stop-color:#FFFFFF;stop-opacity:0"/>
		<stop  offset="0.6325" style="stop-color:#009E58"/>
	</linearGradient>
	<rect x="396.892" y="202.691" fill="url(#SVGID_1_)" width="169.516" height="27.221"/>
</g>
</svg>
